<?xml version="1.0" standalone="no"?>
<!DOCTYPE svg PUBLIC "-//W3C//DTD SVG 20010904//EN"
 "http://www.w3.org/TR/2001/REC-SVG-20010904/DTD/svg10.dtd">
<svg version="1.0" xmlns="http://www.w3.org/2000/svg"
 width="900.000000pt" height="900.000000pt" viewBox="0 0 900.000000 900.000000"
 preserveAspectRatio="xMidYMid meet">
<metadata>
Created by potrace 1.10, written by Peter Selinger 2001-2011
</metadata>
<g transform="translate(0.000000,900.000000) scale(0.100000,-0.100000)"
fill="#000000" stroke="none">
<path d="M3123 8973 c-16 -34 -17 -209 -2 -219 6 -4 284 -8 618 -9 333 -2 611
-4 617 -4 23 -2 29 -53 24 -226 l-5 -180 -75 -7 c-41 -3 -869 -6 -1838 -7
-970 -1 -1768 -3 -1773 -7 -5 -3 -9 -758 -9 -1850 0 -1253 -3 -1852 -10 -1865
-10 -18 -23 -19 -210 -19 -166 0 -201 3 -214 16 -14 13 -16 87 -16 631 0 338
-2 619 -6 624 -6 10 -183 13 -208 3 -15 -6 -16 -137 -16 -1384 l0 -1378 23 -6
c41 -11 182 -7 195 6 9 9 12 162 12 628 0 585 1 618 18 633 16 15 46 17 210
17 186 0 191 -1 206 -22 14 -20 16 -213 16 -1827 0 -1111 3 -1808 9 -1814 6
-6 713 -10 1834 -11 1523 -1 1827 -4 1841 -15 14 -12 16 -39 14 -215 l-3 -201
-630 -5 c-346 -3 -631 -6 -632 -8 -2 -1 -3 -49 -3 -106 0 -75 4 -107 13 -115
10 -8 387 -11 1375 -11 1239 1 1361 2 1374 17 15 18 19 195 5 210 -5 4 -291
10 -635 13 l-627 5 -3 201 c-2 178 0 203 14 215 14 12 300 14 1836 15 1392 1
1822 4 1831 13 9 9 12 440 12 1839 0 1005 4 1833 8 1840 12 18 410 17 426 -1
8 -10 12 -196 13 -633 l3 -619 80 -3 c44 -2 99 0 123 3 l42 6 0 1368 0 1367
-33 12 c-41 15 -171 16 -198 2 -18 -10 -19 -28 -19 -629 0 -592 -1 -619 -19
-635 -16 -15 -41 -16 -211 -13 -173 3 -194 5 -206 21 -11 16 -13 325 -11 1842
1 1230 -2 1827 -9 1834 -7 7 -603 10 -1824 10 -998 0 -1825 3 -1837 6 -23 6
-23 7 -23 204 0 179 2 199 18 205 9 5 290 9 624 11 334 1 612 5 617 9 7 3 11
45 11 101 0 83 -2 95 -20 106 -11 7 -20 18 -20 25 0 7 -9 13 -20 13 -11 0 -19
-6 -18 -12 2 -9 -13 -13 -52 -13 -39 0 -54 4 -52 13 1 6 -7 12 -18 12 -11 0
-20 -7 -20 -14 0 -13 -70 -15 -495 -15 -420 1 -495 3 -495 15 0 9 -11 14 -30
14 -20 0 -30 -5 -30 -15 0 -8 -7 -15 -15 -15 -8 0 -15 7 -15 15 0 10 -10 15
-30 15 -20 0 -30 -5 -30 -15 0 -21 -159 -20 -167 1 -8 20 -103 20 -103 -1 0
-9 -9 -15 -25 -15 -14 0 -28 7 -31 15 -4 8 -17 15 -31 15 -13 0 -22 -4 -18 -9
10 -18 -31 -20 -365 -18 -262 2 -334 5 -332 15 3 18 -55 15 -62 -3 -3 -9 -18
-15 -36 -15 -18 0 -33 6 -36 15 -9 21 -84 21 -84 -1 0 -10 -7 -14 -22 -12 -13
2 -22 9 -20 16 1 7 -9 12 -25 12 -21 0 -31 -7 -40 -27z m909 -851 c19 -19 -7
-32 -66 -32 -51 0 -104 -10 -341 -67 -177 -42 -229 -57 -310 -88 -33 -13 -71
-27 -85 -31 -105 -28 -497 -217 -655 -317 -28 -18 -58 -36 -67 -42 -38 -23
-155 -105 -178 -125 -14 -12 -41 -32 -60 -45 -114 -73 -456 -406 -595 -580
-22 -27 -46 -56 -53 -65 -21 -24 -75 -99 -97 -134 -11 -18 -36 -55 -55 -82
-19 -27 -41 -58 -47 -69 -112 -181 -165 -273 -170 -294 -3 -14 -11 -33 -17
-41 -11 -14 -60 -118 -91 -195 -7 -16 -18 -41 -23 -55 -32 -74 -47 -116 -83
-224 -60 -177 -105 -348 -114 -428 -4 -29 -13 -73 -20 -98 -7 -25 -16 -58 -20
-75 -5 -24 -8 -27 -15 -14 -6 9 -8 668 -7 1553 2 1432 3 1538 19 1550 25 19
3131 17 3150 -2z m4074 -6 c12 -17 14 -249 14 -1560 0 -1392 -4 -1647 -23
-1545 -3 13 -12 58 -21 99 -8 41 -20 100 -26 130 -21 104 -29 140 -40 159 -5
11 -10 29 -10 40 0 43 -103 346 -153 452 -15 31 -27 60 -27 64 0 12 -150 308
-165 325 -7 8 -16 26 -20 40 -4 14 -25 48 -46 77 -22 29 -39 55 -39 58 0 5
-56 88 -156 229 -17 24 -41 54 -53 67 -13 13 -35 40 -49 59 -37 48 -207 239
-246 274 -17 16 -58 54 -91 86 -33 32 -103 92 -155 133 -52 42 -115 92 -140
112 -52 42 -102 77 -145 101 -16 9 -66 40 -110 68 -91 59 -97 62 -183 111 -34
19 -66 35 -71 35 -5 0 -41 18 -82 40 -40 22 -84 43 -98 46 -14 4 -35 12 -46
18 -37 23 -248 100 -360 133 -221 64 -379 100 -495 114 -129 15 -140 17 -140
34 0 10 15 15 53 17 28 2 740 3 1580 3 1499 0 1529 0 1543 -19z m-3326 -167
c80 -6 159 -15 175 -20 17 -5 68 -13 115 -18 80 -9 136 -21 270 -58 30 -8 84
-21 119 -29 78 -17 139 -38 192 -63 22 -11 54 -23 72 -27 18 -3 73 -26 124
-50 50 -24 98 -44 105 -44 7 0 33 -12 58 -26 25 -15 77 -42 115 -62 39 -19 84
-45 100 -57 17 -12 50 -32 75 -45 25 -12 61 -35 81 -51 20 -16 41 -29 47 -29
5 0 16 -7 23 -16 8 -9 30 -27 49 -39 38 -24 126 -92 234 -182 77 -64 335 -320
407 -404 74 -87 258 -343 314 -437 6 -9 22 -35 36 -58 42 -66 207 -408 233
-484 8 -25 25 -70 36 -100 12 -30 32 -93 45 -140 12 -47 33 -117 44 -155 64
-206 115 -654 105 -930 -10 -294 -47 -584 -96 -760 -11 -38 -28 -101 -38 -140
-22 -83 -57 -187 -76 -224 -8 -14 -14 -33 -14 -42 0 -21 -23 -78 -61 -152 -16
-31 -29 -62 -29 -68 0 -9 -82 -165 -162 -309 -17 -30 -47 -77 -68 -105 -20
-27 -42 -61 -49 -74 -17 -30 -134 -185 -209 -274 -137 -163 -399 -415 -558
-534 -129 -98 -161 -121 -185 -133 -13 -7 -33 -20 -44 -30 -11 -10 -45 -30
-75 -46 -30 -15 -68 -37 -85 -49 -16 -12 -64 -38 -105 -59 -41 -20 -82 -41
-90 -46 -125 -76 -495 -207 -760 -269 -128 -30 -167 -36 -470 -73 -107 -12
-454 -12 -580 1 -218 23 -447 58 -515 79 -28 9 -72 22 -202 59 -75 21 -145 45
-158 53 -5 4 -41 17 -80 29 -77 25 -428 194 -488 235 -21 14 -40 26 -42 26 -3
0 -34 20 -69 44 -36 24 -73 47 -83 50 -10 3 -36 21 -58 41 -22 19 -43 35 -46
35 -15 0 -162 120 -289 236 -117 106 -166 155 -310 309 -16 17 -60 73 -98 125
-39 52 -84 112 -102 132 -17 20 -40 54 -50 75 -10 21 -28 47 -39 57 -12 11
-21 23 -21 28 0 5 -25 49 -55 99 -72 119 -211 404 -235 484 -7 22 -18 54 -26
70 -15 34 -65 188 -83 255 -6 25 -20 77 -30 115 -28 103 -74 416 -86 583 -9
122 -6 445 5 542 25 221 60 448 78 505 12 39 37 124 57 200 9 33 30 94 46 136
16 42 29 81 29 87 0 49 266 570 331 648 8 9 23 32 34 50 57 94 201 276 344
434 135 150 462 427 608 516 17 10 55 35 85 55 72 49 115 74 168 101 25 12 65
34 90 48 25 14 70 36 100 49 30 13 91 40 135 61 45 21 96 41 115 45 19 4 48
14 64 22 38 20 138 53 206 68 30 7 80 21 110 30 96 29 202 50 325 65 50 6 117
15 150 20 33 5 109 11 170 15 60 3 110 7 112 9 5 5 239 -4 383 -15z m3340
-5509 c0 -939 -4 -1531 -10 -1540 -8 -13 -184 -15 -1462 -18 -799 -1 -1468 0
-1486 3 -71 13 -28 32 168 74 152 32 350 93 490 150 30 13 73 30 95 39 68 26
246 114 341 167 49 28 97 54 105 58 8 4 46 28 85 54 40 27 102 68 138 92 36
24 66 47 66 50 0 4 15 15 33 25 75 44 343 287 485 440 209 227 397 494 542
771 50 96 140 293 140 307 0 6 6 19 13 27 7 9 21 41 31 71 10 30 24 71 31 90
7 19 28 82 45 140 17 58 36 121 42 140 7 19 15 53 19 75 21 106 31 156 45 220
8 39 18 81 20 94 20 96 24 -142 24 -1529z m-7217 1440 c9 -41 24 -111 33 -155
32 -160 122 -450 179 -580 7 -16 29 -68 49 -115 60 -142 175 -361 232 -443 19
-26 34 -49 34 -52 0 -9 129 -195 155 -222 14 -15 25 -31 25 -35 0 -4 26 -38
58 -75 32 -38 68 -81 80 -98 62 -80 294 -306 427 -415 267 -220 604 -425 885
-540 133 -54 198 -79 240 -92 25 -8 68 -22 95 -31 70 -23 199 -57 270 -72 33
-6 89 -20 123 -30 55 -15 61 -20 45 -29 -29 -18 -2924 -20 -2948 -2 -17 12
-18 84 -22 1522 -2 830 -1 1520 2 1533 9 35 19 16 38 -69z"/>
<path d="M3428 6072 l-68 -3 -1 -37 c0 -20 -1 -183 -1 -362 0 -179 -5 -333
-10 -342 -8 -17 -37 -18 -388 -18 -221 0 -381 -4 -385 -9 -3 -5 -6 -174 -6
-376 0 -344 -2 -368 -19 -385 -18 -18 -41 -19 -391 -20 -204 0 -375 -3 -380
-6 -5 -3 -9 -267 -9 -598 0 -486 2 -596 14 -605 19 -16 5403 -16 5422 0 12 9
14 113 14 605 0 373 -4 595 -10 599 -5 3 -178 6 -383 5 -338 0 -376 1 -388 16
-11 14 -14 87 -14 386 -1 312 -3 371 -15 378 -9 6 -177 10 -386 10 -274 0
-373 3 -382 12 -9 9 -12 106 -12 374 0 225 -4 365 -10 369 -10 6 -2065 13
-2192 7z m933 -223 c18 -18 19 -55 16 -1174 -2 -1015 -4 -1157 -17 -1165 -20
-13 -2350 -13 -2370 0 -13 8 -15 64 -17 392 -1 256 2 387 9 395 8 10 95 13
387 13 207 0 382 4 389 8 10 7 13 87 13 377 0 223 4 375 10 387 9 17 31 18
389 18 365 0 380 1 390 19 6 13 10 147 10 367 0 300 2 350 16 365 14 15 48 17
386 17 349 0 371 -1 389 -19z m1036 10 l23 -9 0 -363 c0 -269 3 -366 12 -375
9 -9 108 -12 384 -12 311 0 373 -2 383 -14 9 -11 12 -111 12 -378 0 -211 3
-369 9 -378 8 -13 67 -16 397 -20 l388 -5 3 -389 c1 -279 -1 -393 -9 -402 -16
-19 -2358 -21 -2377 -2 -9 9 -12 283 -12 1169 l0 1158 22 15 c19 14 73 16 382
15 198 0 370 -5 383 -10z"/>
</g>
</svg>

